PathFileType	4	(X/Y/Z)	RBDS012\RBDS012runT45.trc
DataRate	CameraRate	NumFrames	NumMarkers	Units	OrigDataRate	OrigDataStartFrame	OrigNumFrames
150.000000	150.000000	5	33	mm	150.000000	562	4500
Frame#	Time	L.ASIS			L.Heel.Bottom			L.Heel.Lateral			L.Heel.Top			L.Iliac.Crest			L.MT1			L.MT5			L.PSIS			L.Shank.Bottom.Lateral			L.Shank.Bottom.Medial			L.Shank.Top.Lateral			L.Shank.Top.Medial			L.Thigh.Bottom.Lateral			L.Thigh.Bottom.Medial			L.Thigh.Top.Lateral			L.Thigh.Top.Medial			R.ASIS			R.ASY			R.Heel.Bottom			R.Heel.Lateral			R.Heel.Top			R.Iliac.Crest			R.MT1			R.MT5			R.PSIS			R.Shank.Bottom.Lateral			R.Shank.Bottom.Medial			R.Shank.Top.Lateral			R.Shank.Top.Medial			R.Thigh.Bottom.Lateral			R.Thigh.Bottom.Medial			R.Thigh.Top.Lateral			R.Thigh.Top.Medial			
		X1	Y1	Z1	X2	Y2	Z2	X3	Y3	Z3	X4	Y4	Z4	X5	Y5	Z5	X6	Y6	Z6	X7	Y7	Z7	X8	Y8	Z8	X9	Y9	Z9	X10	Y10	Z10	X11	Y11	Z11	X12	Y12	Z12	X13	Y13	Z13	X14	Y14	Z14	X15	Y15	Z15	X16	Y16	Z16	X17	Y17	Z17	X18	Y18	Z18	X19	Y19	Z19	X20	Y20	Z20	X21	Y21	Z21	X22	Y22	Z22	X23	Y23	Z23	X24	Y24	Z24	X25	Y25	Z25	X26	Y26	Z26	X27	Y27	Z27	X28	Y28	Z28	X29	Y29	Z29	X30	Y30	Z30	X31	Y31	Z31	X32	Y32	Z32	X33	Y33	Z33	

563	3.746666666666667	2255.438728399375	955.5540057016623	910.3293882625394	1884.34478495323	52.80312059557112	1038.90427135048	1913.112483423785	63.04964114845512	990.4450388994468	1900.711663090783	101.199294804998	1038.193604729487	2203.520505982868	1029.605232394892	882.0719426234613	2111.270028225804	31.30916113836607	1072.549490313126	2075.457310126017	44.83683778391139	953.2163050177485	2105.222643379857	1024.361275209083	1015.84283314088	2021.296724941752	166.8436748070142	974.4003358564122	1981.776925757908	195.6226912997785	1000.526925676694	2055.439976883187	236.1579125910106	951.5965993809278	2018.165253310642	264.7875659968207	978.0990931242702	2225.464828746881	574.7563675278262	893.6648078632787	2160.074338233341	565.1137631688503	924.5184982688135	2196.312598325646	679.770915952294	873.3344909430455	2137.042327392313	672.0287994650872	906.2273436649975	2280.770287089964	954.2844239786792	1184.755430473267	1986.885085715029	351.1574311608147	1107.664205301264	1900.966588455344	532.2268659719866	1123.088481700558	1924.074225705664	511.3154269443957	1157.450843276147	1951.475547497155	527.8940620074226	1117.190973546356	2239.253704676883	1021.720655356552	1219.019728546943	1940.545324069661	318.0096536277257	1061.021547192618	1944.266373633021	335.8954215011889	1178.576932593735	2113.649257339124	1014.865754389558	1119.228779703898	2056.285279213332	473.6094968357555	1168.703871910194	2057.753868968573	517.802863268068	1143.147018135532	2137.444811871585	484.2663560832938	1189.736865301347	2134.487816244447	531.044847259536	1164.295171062402	2357.067234906096	583.3337666257662	1231.855799131773	2308.884009775082	558.4970116010811	1182.211202410916	2294.294456423278	672.1791636344346	1244.836072684497	2245.090837455996	646.6103486228723	1203.002468798845	
564	3.753333333333333	2256.834533739056	956.9347884814187	910.5342177816025	1855.042651783412	59.27579618031055	1039.048314515975	1883.954084178609	67.92918023311458	990.483397673956	1872.804606367617	107.0840177153065	1037.645442281249	2205.462333236176	1032.03815061053	881.7484228632183	2080.166751612196	30.90370489821639	1072.930973590454	2044.874722051361	44.35426704816402	953.8177668292216	2106.272480735792	1027.608429604346	1013.970775150556	1993.667303683157	171.2189897286679	973.8384192996417	1954.851098022236	200.3933116447698	1000.490731303763	2028.830019289336	240.0524006519427	951.2864752440754	1992.163614133332	269.1135123303497	978.0727832949925	2208.838856900056	575.1104988349409	893.7205951102036	2142.975169071403	568.5825474507036	924.4210499864271	2184.807598403418	681.4734554563402	873.5789826392887	2125.250262577806	676.58686777092	906.5022485122677	2280.386312292007	959.0657671158702	1185.366740862818	2013.420702987889	333.3635778856791	1108.504049690855	1912.986081106986	506.9435735625381	1121.888450554664	1937.602257114437	488.1721673005409	1156.381669352195	1963.808054079854	506.732329055193	1116.201599483127	2239.183656730756	1026.002016792428	1218.700484637671	1970.203863076522	296.1943424179751	1061.961195390179	1971.729290891829	315.3223155415477	1179.509660526847	2113.870467592455	1018.539981294211	1117.838852567704	2072.95183648682	461.2255698816605	1167.921499555449	2071.104719535943	505.1510960365537	1141.87165172039	2153.102831165142	478.2139992369193	1188.623074457806	2146.669928344972	524.2758955615509	1162.612789553159	2368.951154097073	594.1581968203049	1231.048814191175	2321.80198388119	567.7326615987342	1181.071671216313	2302.972755804913	680.4575453319738	1244.46058384098	2254.707484858925	653.3342079150224	1202.320508681365	
565	3.76	2258.641495574802	958.6035669621747	910.6277232732866	1826.695715831269	67.29159845272498	1038.94434214003	1855.717836890798	74.00134403647598	990.2941715415466	1846.180153419579	114.2509935451907	1036.776464517471	2208.190402664512	1034.457914617035	881.539888180497	2049.257994105094	30.57746688305288	1073.232825984662	2014.623540239884	43.85190617462906	954.2968501362146	2107.795813098653	1030.982001479003	1012.267591449404	1966.860575912076	176.6434181701959	972.9284560335261	1928.738870444764	206.0008598045159	1000.282983119801	2002.766332688261	245.165937831732	950.7262570140094	1966.699573612094	274.452950801863	977.9796597980052	2192.308489290855	576.7028526045156	893.7915760459514	2126.142335254764	573.3947792259025	924.339995130793	2173.574250992358	684.1400202924085	873.8316637152194	2113.883299929415	682.1994308655811	906.8032201269474	2280.383738936697	964.1154292172513	1185.838288321256	2041.017056496901	315.5185983064297	1109.342864684937	1926.337838895087	480.2967314595146	1120.211512386288	1952.242732494366	463.8918806016422	1154.87640541571	1977.082929368805	484.3130105582236	1114.744895856697	2239.642895970436	1030.669078007441	1218.364708812152	2001.414976122333	274.3920312783282	1062.976748388428	2000.393692240745	294.891552401172	1180.422107319308	2114.446545861068	1022.545246369559	1116.659277504104	2089.985680830237	448.2567223398044	1166.886336176175	2084.768832216582	491.6204683727396	1140.262986699724	2168.584380763532	471.7529812866634	1187.278737352867	2158.646055144813	516.7846945278976	1160.646081766394	2379.666114028165	605.264246102363	1229.892573259324	2333.477217651826	577.4461146169399	1179.628166238964	2310.862340233838	689.113507860485	1243.823212351236	2263.516570521617	660.702764603575	1201.304662918987	
566	3.766666666666667	2260.817115694373	960.5677670433097	910.5939034225127	1799.573277770786	76.89967818718412	1038.504376162838	1828.648511612688	81.33871124887145	989.7964062234014	1821.081380997218	122.7158826246155	1035.523256317746	2211.748227628353	1036.919471637086	881.471690221761	2018.688388463822	30.43052737791654	1073.396302334712	1984.848252019131	43.44198417300912	954.5848633934008	2109.76324052059	1034.440976142518	1010.755513039501	1941.115341436202	183.0869590954979	971.6310593793089	1903.667889445671	212.4164774924046	999.849471099328	1977.486354529728	251.4788414146651	949.8873395636041	1942.004263167411	280.7803224424568	977.7886546263825	2176.051196256103	579.552194670017	893.8943537935627	2109.768327272348	579.5476662875786	924.2940914057805	2162.755772561242	687.7628295183297	874.086743168938	2103.091802370539	688.8366037772844	907.1158791214716	2280.768226218948	969.3958013120126	1186.096829874208	2069.727137842894	297.8334054503047	1110.146159985862	1941.310871744228	452.5223717966332	1118.139641771546	1968.262405432281	438.6821942291874	1153.004323857143	1991.566832306726	460.8164472648353	1112.872455839386	2240.499373805796	1035.728363722821	1218.051798852569	2034.179982648338	252.8970741969409	1064.065666170728	2030.328985472481	274.8133114670437	1181.295474473221	2115.353582410091	1026.842538554743	1115.683403709696	2107.542079196469	434.7324644371118	1165.628356361391	2098.952840167	477.2346632957494	1138.380359862508	2184.015327926904	464.788092263738	1185.735938911489	2170.600266423653	508.4836446095254	1158.454169522632	2389.212728220119	616.4103074607887	1228.389638241218	2343.83468238955	587.3648601423041	1177.967819674698	2317.968072039464	697.9680360964255	1242.924214170119	2271.468867639898	668.5117625939744	1200.027100411883	
567	3.773333333333333	2263.309477654702	962.8284944447361	910.4402159169184	1773.905424945147	88.09600670432002	1037.66393638632	1802.95334943925	89.98702296973316	988.9315487876206	1797.696097832969	132.4552766718298	1033.856438940098	2216.151730980593	1039.487909190848	881.5665154112299	1988.609159683141	30.577467644718	1073.362882652969	1955.687317403436	43.27372543695507	954.6208803838909	2112.124813998383	1037.955514942203	1009.434009939057	1916.634046493785	190.4811443193379	969.9399111987175	1879.828840495717	219.5852925125539	999.1566678973842	1953.206523774381	258.9200776199186	948.765509150919	1918.288466889427	288.0320254326286	977.4791647483106	2160.227517283257	583.6212097802002	894.0477407461336	2094.02293879247	586.9773584825421	924.310161105294	2152.467941098098	692.2922796924066	874.3409332402097	2092.994094564005	696.4224077508429	907.4328029986534	2281.537547999611	974.884523251691	1186.089011266361	2099.572558392048	280.5048342187996	1110.87437975985	1958.137199561902	423.8715270656609	1115.771654771974	1985.879013633744	412.7570778790119	1150.852583408574	2007.487167367251	436.4411906362097	1110.663237517436	2241.63202337072	1041.184450478517	1217.79435964971	2068.464825720273	231.9924032302818	1065.198959718471	2061.570062490806	255.2668092699211	1182.097083909206	2116.563911581884	1031.382864080579	1114.886240786098	2125.753442357606	420.6959055116421	1164.18697179218	2113.83571053407	462.0447518877178	1136.295440297818	2199.52196438301	457.2420706677677	1184.035026688638	2182.709481795037	499.31520014618	1156.103552904466	2397.612659964929	627.3636381989769	1226.552669166699	2352.828863242934	597.213539050226	1176.191178751796	2324.310621124478	706.8493763423299	1241.760107008005	2278.534303266122	676.5474596075037	1198.567246462381	
